<svg aria-hidden="true" style="width:0;height:0;position:absolute;overflow:hidden" xmlns="http://www.w3.org/2000/svg"><defs><symbol id="icon-twitter" viewBox="0 0 38 32"><path fill="none" style="stroke:var(--color1,#d5d5d5)" stroke-linejoin="round" stroke-linecap="round" stroke-width=".571" d="m24.813 8.991 2.232-2.241m-2.232 0 2.232 2.241m5.259.072v.893c0 8.991-6.821 19.295-19.304 19.295a18.928 18.928 0 0 1-10.375-3.08c.536.071 1.071.107 1.616.098 3.054 0 6.027-1.009 8.429-2.893a6.75 6.75 0 0 1-6.339-4.723c.42.089.857.134 1.286.134.607 0 1.205-.08 1.786-.241a6.763 6.763 0 0 1-5.438-6.651v-.089a6.597 6.597 0 0 0 3.071.839 6.734 6.734 0 0 1-2.134-8.982 19.256 19.256 0 0 0 14 7.089 5.699 5.699 0 0 1-.188-1.554 6.723 6.723 0 0 1 1.799-4.836 6.747 6.747 0 0 1 4.693-2.146c2-.071 3.929.75 5.268 2.241a13.936 13.936 0 0 0 4.313-1.652 6.833 6.833 0 0 1-3.027 3.812 14.17 14.17 0 0 0 3.902-1.125 13.9 13.9 0 0 1-3.357 3.571z"/></symbol><symbol id="icon-facebook" viewBox="0 0 32 32"><path fill="none" style="stroke:var(--color1,#d5d5d5)" stroke-width=".552" d="M16 30.933a14.926 14.926 0 0 1-10.56-4.374 14.923 14.923 0 0 1-4.374-10.56A14.926 14.926 0 0 1 5.44 5.439 14.923 14.923 0 0 1 16 1.065a14.936 14.936 0 0 1 14.933 14.933A14.936 14.936 0 0 1 16 30.931zm0 0V13.866a4.267 4.267 0 0 1 4.267-4.267h1.067m-10.667 8.534h10.667"/></symbol><symbol id="icon-instagram" viewBox="0 0 32 32"><path fill="none" style="stroke:var(--color1,#d5d5d5)" stroke-width=".552" d="M23.467 7.467H25.6m-16-6.4h12.8A8.534 8.534 0 0 1 30.933 9.6v12.8a8.534 8.534 0 0 1-8.533 8.533H9.6A8.534 8.534 0 0 1 1.067 22.4V9.6A8.534 8.534 0 0 1 9.6 1.067zM16 22.4A6.396 6.396 0 0 1 9.6 16a6.398 6.398 0 0 1 10.925-4.525 6.402 6.402 0 0 1 0 9.051A6.397 6.397 0 0 1 16 22.4z"/></symbol></defs></svg>